<?xml version="1.0" encoding="UTF-8" standalone="no"?>
<svg
   width="11.871344"
   height="13.878372"
   version="1.1"
   id="svg2"
   sodipodi:docname="icon.svg"
   inkscape:export-filename="C:\Users\liamo\Downloads\icon_experimental.png"
   inkscape:export-xdpi="1000"
   inkscape:export-ydpi="1000"
   xml:space="preserve"
   viewBox="0 0 11.871344 13.878372"
   xmlns:inkscape="http://www.inkscape.org/namespaces/inkscape"
   xmlns:sodipodi="http://sodipodi.sourceforge.net/DTD/sodipodi-0.dtd"
   xmlns="http://www.w3.org/2000/svg"
   xmlns:svg="http://www.w3.org/2000/svg"><defs
     id="defs2"><mask
       maskUnits="userSpaceOnUse"
       id="mask-powermask-path-effect3"><path
         d="M 3.88838,0 V 13.878373 M 4.88838,0 V 13.878373 M 5.88838,0 V 13.878373 M 6.8883801,0 V 13.878373 M 7.8883801,0 V 13.878373 M 8.8883801,0 V 13.878373 M 9.8883802,0 V 13.878373 M 10.88838,0 V 13.878373 M 11.88838,0 V 13.878373 M 12.88838,0 V 13.878373 M 13.88838,0 V 13.878373 M 14.88838,0 V 13.878373 M 3.88838,0 H 15.759724 M 3.88838,1 H 15.759724 M 3.88838,2.0000001 h 11.871344 m -11.871344,1 h 11.871344 m -11.871344,1 h 11.871344 m -11.871344,1 H 15.759724 M 3.88838,6.0000002 h 11.871344 m -11.871344,1 h 11.871344 m -11.871344,1 H 15.759724 M 3.88838,9.0000003 H 15.759724 M 3.88838,10 H 15.759724 M 3.88838,11 H 15.759724 M 3.88838,12 H 15.759724 M 3.88838,13 h 11.871344"
         style="fill:none;stroke:#7997d3;stroke-width:0.1px;stroke-opacity:1"
         id="path3" /></mask></defs><sodipodi:namedview
     id="namedview2"
     pagecolor="#505050"
     bordercolor="#ffffff"
     borderopacity="1"
     inkscape:showpageshadow="0"
     inkscape:pageopacity="0"
     inkscape:pagecheckerboard="1"
     inkscape:deskcolor="#505050"
     showgrid="false"
     guidecolor="#00ff22"
     guideopacity="0.6"><sodipodi:guide
       position="6.9076848,11.502997"
       orientation="0,19.795391"
       id="guide67"
       inkscape:locked="false" /><sodipodi:guide
       position="15.907011,4.0395915"
       orientation="13.878372,0"
       id="guide68"
       inkscape:locked="false" /><sodipodi:guide
       position="15.907011,-1.9238281e-07"
       orientation="0,-19.795391"
       id="guide69"
       inkscape:locked="false" /><sodipodi:guide
       position="2.6520974,11.870058"
       orientation="-13.878372,0"
       id="guide70"
       inkscape:locked="false" /><inkscape:page
       x="0"
       y="0"
       width="11.871344"
       height="13.878372"
       id="page1"
       margin="0"
       bleed="0" /></sodipodi:namedview><g
     inkscape:groupmode="layer"
     id="layer1"
     inkscape:label="background"
     transform="translate(-3.8883803)"><rect
       style="display:inline;fill:#5379c6;fill-opacity:1;stroke-width:0;stroke-linecap:square;stroke-miterlimit:8;paint-order:fill markers stroke"
       id="rect3"
       width="11.871344"
       height="13.878372"
       x="3.8883803"
       y="2.220446e-16"
       ry="1.5023288"
       inkscape:label="main" /><path
       id="rect2"
       mask="url(#mask-powermask-path-effect3)"
       d="m 5.390709,0 h 8.866686 c 0.83229,0 1.502329,0.67003862 1.502329,1.5023288 V 12.376043 c 0,0.832291 -0.670039,1.502329 -1.502329,1.502329 H 5.390709 c -0.8322901,0 -1.5023287,-0.670038 -1.5023287,-1.502329 V 1.5023288 C 3.8883803,0.67003862 4.5584189,0 5.390709,0 Z"
       style="fill:#7997d3;fill-opacity:1;stroke-width:0;stroke-linecap:square;stroke-miterlimit:8;paint-order:fill markers stroke"
       inkscape:label="grid" /></g><rect
     style="fill:#454545;fill-opacity:1;stroke-width:0;stroke-linecap:square;stroke-miterlimit:8;paint-order:fill markers stroke"
     id="rect71"
     width="11.871344"
     height="2.983943"
     x="2.2615675e-08"
     y="9.5442066"
     ry="0"
     inkscape:label="JSON background" /><path
     d="m 1.8175811,9.5937877 h 0.5850622 v 1.8404673 q 0,0.360953 -0.063464,0.555313 -0.08528,0.253857 -0.3093888,0.408552 -0.2241086,0.152711 -0.591012,0.152711 -0.4303677,0 -0.66240937,-0.239975 -0.2320416,-0.241958 -0.2340248,-0.708024 l 0.55332997,-0.06346 q 0.00992,0.249891 0.073381,0.353021 0.095197,0.156678 0.2895562,0.156678 0.1963429,0 0.2776566,-0.111063 0.081314,-0.113046 0.081314,-0.466066 z m 1.0610449,1.9614453 0.5711794,-0.05553 q 0.051565,0.287573 0.2082425,0.422435 0.1586609,0.134862 0.4264012,0.134862 0.2836065,0 0.4264013,-0.118996 0.1447781,-0.120979 0.1447781,-0.281623 0,-0.10313 -0.061481,-0.174527 -0.059498,-0.07338 -0.2102258,-0.126929 -0.1031296,-0.0357 -0.470033,-0.126929 Q 3.4418724,11.110983 3.2514792,10.940422 2.9837389,10.700448 2.9837389,10.35536 q 0,-0.222125 0.1249455,-0.4145015 0.1269287,-0.1943596 0.3629369,-0.295506 0.2379914,-0.1011463 0.5731626,-0.1011463 0.5473802,0 0.8230536,0.2399746 0.2776566,0.2399742 0.2915395,0.6405932 l -0.5870455,0.02578 q -0.037682,-0.224109 -0.1626274,-0.321289 -0.1229623,-0.09916 -0.37087,-0.09916 -0.2558407,0 -0.4006188,0.105113 -0.093213,0.06743 -0.093213,0.180477 0,0.10313 0.087263,0.17651 0.1110626,0.09321 0.5394472,0.19436 0.4283845,0.101146 0.6326604,0.210226 0.2062592,0.107096 0.3212884,0.295506 0.1170125,0.186426 0.1170125,0.4621 0,0.249891 -0.1388284,0.468049 -0.1388283,0.218159 -0.3926858,0.325255 -0.2538575,0.105113 -0.6326604,0.105113 -0.5513468,0 -0.8468528,-0.253857 -0.295506,-0.255841 -0.3530204,-0.743724 z m 2.7388845,-0.489865 q 0,-0.444251 0.1328785,-0.745707 0.099163,-0.222125 0.2697236,-0.3986351 0.1725441,-0.1765103 0.3768201,-0.2617906 0.271706,-0.1150291 0.62671,-0.1150291 0.642577,0 1.02733,0.3986356 0.386736,0.3986352 0.386736,1.1086432 0,0.704058 -0.38277,1.102694 -0.382769,0.396652 -1.023363,0.396652 -0.648526,0 -1.0312957,-0.394669 -0.3827695,-0.396653 -0.3827695,-1.090794 z m 0.6048952,-0.01983 q 0,0.493832 0.228075,0.749673 0.228075,0.253858 0.579112,0.253858 0.351037,0 0.575146,-0.251875 0.226092,-0.253857 0.226092,-0.759589 0,-0.499782 -0.220142,-0.745706 -0.218159,-0.245925 -0.581096,-0.245925 -0.362937,0 -0.585062,0.249891 -0.222125,0.247908 -0.222125,0.749673 z m 2.679386,1.455714 V 9.5937877 h 0.571179 L 10.662928,11.535401 V 9.5937877 h 0.545397 V 12.501249 H 10.619297 L 9.4471887,10.605251 v 1.895998 z"
     id="text58"
     style="font-weight:bold;font-size:4.06172px;font-family:Arial;-inkscape-font-specification:'Arial, Bold';fill:#ffffff;stroke-width:0;stroke-linecap:square;stroke-miterlimit:8;paint-order:fill markers stroke"
     inkscape:label="JSON"
     aria-label="JSON" /><g
     inkscape:groupmode="layer"
     id="layer3"
     inkscape:label="lines"
     transform="translate(-3.8883803)"><rect
       style="fill:#ffffff;fill-opacity:1;stroke:#000000;stroke-width:0;stroke-linecap:square;stroke-miterlimit:8;stroke-dasharray:none;stroke-opacity:1;paint-order:fill markers stroke"
       id="rect5"
       width="7.7842607"
       height="0.92857283"
       x="6.903935"
       y="1.4468024"
       ry="0.46428642"
       inkscape:label="top" /><rect
       style="fill:#ffffff;fill-opacity:1;stroke:#000000;stroke-width:0;stroke-linecap:square;stroke-miterlimit:8;stroke-dasharray:none;stroke-opacity:1;paint-order:fill markers stroke"
       id="rect62"
       width="7.7842607"
       height="0.92857283"
       x="6.903935"
       y="4.447"
       ry="0.46428642"
       inkscape:label="middle" /><rect
       style="fill:#ffffff;fill-opacity:1;stroke:#000000;stroke-width:0;stroke-linecap:square;stroke-miterlimit:8;stroke-dasharray:none;stroke-opacity:1;paint-order:fill markers stroke"
       id="rect63"
       width="7.7842607"
       height="0.92857283"
       x="6.903935"
       y="7.447"
       ry="0.46428642"
       inkscape:label="bottom" /></g><g
     inkscape:groupmode="layer"
     id="layer4"
     inkscape:label="shapes"><path
       style="fill:#ffffff;fill-opacity:1;stroke-width:0;stroke-linecap:square;stroke-miterlimit:8;paint-order:fill markers stroke"
       d="M 2.6520975,7.5411014 1.0943871,6.6417569 v 1.7982296 z"
       id="path72"
       sodipodi:nodetypes="cccc"
       inkscape:label="triangle" /><path
       style="fill:#ffffff;fill-opacity:1;stroke-width:0;stroke-linecap:square;stroke-miterlimit:8;paint-order:fill markers stroke"
       id="path63"
       sodipodi:type="arc"
       sodipodi:cx="1.7770976"
       sodipodi:cy="4.4573641"
       sodipodi:rx="0.875"
       sodipodi:ry="0.875"
       sodipodi:start="0.59865876"
       sodipodi:end="0.59810795"
       sodipodi:open="true"
       sodipodi:arc-type="arc"
       d="M 2.4999283,4.9504572 A 0.875,0.875 0 0 1 1.284104,5.1802626 0.875,0.875 0 0 1 1.0541311,3.9644701 0.875,0.875 0 0 1 2.2698921,3.7343298 0.875,0.875 0 0 1 2.5001997,4.950059"
       inkscape:label="O" /><g
       inkscape:groupmode="layer"
       id="layer2"
       inkscape:label="X"
       transform="rotate(44.366052,5.4118275,-2.1501959)"><rect
         style="fill:#ffffff;fill-opacity:1;stroke-width:0;stroke-linecap:square;stroke-miterlimit:8;paint-order:fill markers stroke"
         id="rect61"
         width="0.5"
         height="2"
         x="2.7372594"
         y="-6.3532648"
         transform="rotate(90.136453)" /><rect
         style="fill:#ffffff;fill-opacity:1;stroke-width:0;stroke-linecap:square;stroke-miterlimit:8;paint-order:fill markers stroke"
         id="rect60"
         width="0.5"
         height="2"
         x="5.0961351"
         y="2" /></g></g></svg>
